<svg xmlns="http://www.w3.org/2000/svg" viewBox="0 0 445.22 897.39"><defs><style>.cls-1{fill:none;stroke:#222221;stroke-miterlimit:10;}</style></defs><title>Asset 2</title><g id="Layer_2" data-name="Layer 2"><g id="Layer_3" data-name="Layer 3"><g id="P"><polygon class="cls-1" points="89.29 513.51 444.22 307.91 355.58 256.73 1.29 461.24 89.29 513.51"/><polygon class="cls-1" points="89.64 103.22 178.29 52.04 89.64 0.86 1 52.04 89.64 103.22"/><path class="cls-1" d="M178.29,461.43V51.12L89.64.86l-.35,512.65v383l355-205V307.85Zm177,179.09-177,102.19V563.88l177-102.19Z"/><polygon class="cls-1" points="355.29 461.69 355.3 640.66 178.29 742.87 89.29 688.97 266.29 589.59 266.3 410.98 355.29 461.69"/></g><g id="P-2" data-name="P"><polyline class="cls-1" points="89.64 103.22 1.29 52.04 1.29 461.24 1.29 845.31 89.64 896.49"/></g></g></g></svg>