<svg xmlns="http://www.w3.org/2000/svg" viewBox="0 0 443.29 895.67"><defs><style>.cls-1{fill:#ffda18;}.cls-2{fill:#009393;}.cls-3{fill:#00585f;}</style></defs><title>Asset 2</title><g id="Layer_2" data-name="Layer 2"><g id="Layer_3" data-name="Layer 3"><g id="P"><polygon class="cls-1" points="88.64 511.78 443.22 307.06 354.58 255.88 0 460.6 88.64 511.78"/><polygon class="cls-1" points="88.64 102.36 177.29 51.18 88.64 0 0 51.18 88.64 102.36"/><path class="cls-2" d="M177.29,460.57V50.26l-89,51.38v794l355-205V307Zm177,179.1-177,102.19V563l177-102.19Z"/><polygon class="cls-1" points="354.29 460.5 354.3 639.8 177.29 742.01 177.29 638.14 265.29 588.73 265.3 511.89 354.29 460.5"/></g><g id="P-2" data-name="P"><polyline class="cls-3" points="88.64 102.36 0.29 51.18 0.29 460.38 0.29 844.45 88.64 895.63"/></g></g></g></svg>